<?xml version="1.0" standalone="no"?>
<!DOCTYPE svg PUBLIC "-//W3C//DTD SVG 20010904//EN"
 "http://www.w3.org/TR/2001/REC-SVG-20010904/DTD/svg10.dtd">
<svg version="1.0" xmlns="http://www.w3.org/2000/svg"
 width="192.000000pt" height="192.000000pt" viewBox="0 0 192.000000 192.000000"
 preserveAspectRatio="xMidYMid meet">
<metadata>
Created by potrace 1.14, written by Peter Selinger 2001-2017
</metadata>
<g transform="translate(0.000000,192.000000) scale(0.100000,-0.100000)"
fill="#000000" stroke="none">
<path d="M508 1705 c-3 -3 -43 -8 -89 -11 -46 -4 -89 -10 -95 -15 -6 -5 -13
-6 -17 -3 -12 13 -119 -32 -149 -63 -46 -47 -36 -114 25 -167 13 -12 29 -30
35 -41 6 -12 22 -27 37 -35 35 -19 155 -133 155 -148 0 -7 5 -12 11 -12 5 0 8
-4 5 -8 -7 -11 40 -52 59 -52 8 0 15 -4 15 -10 0 -5 7 -10 15 -10 9 0 18 -8
22 -17 9 -28 57 -103 65 -103 9 0 63 -50 64 -58 2 -17 26 -67 44 -92 11 -16
20 -43 20 -62 0 -25 10 -46 38 -78 20 -24 36 -45 35 -47 -2 -2 -3 -4 -2 -5 0
-2 2 -16 4 -31 5 -37 30 -75 59 -88 13 -6 31 -31 41 -56 23 -55 63 -100 98
-108 15 -4 33 -21 44 -42 10 -19 22 -43 27 -52 13 -24 76 -51 110 -47 16 1 50
-6 77 -17 52 -22 38 -25 140 28 11 5 22 18 25 28 3 10 32 44 64 76 31 32 61
67 64 79 4 12 12 22 18 22 6 0 9 3 5 6 -8 8 20 64 32 64 4 0 7 10 6 23 -1 12
1 27 4 32 4 6 8 24 10 40 2 17 9 42 17 58 8 15 12 27 10 27 -3 0 -1 12 4 26 6
14 12 40 14 57 7 46 14 76 21 87 4 6 9 22 11 37 3 14 14 44 25 67 11 23 22 48
24 56 2 8 11 34 19 57 13 35 23 78 27 111 2 13 -13 52 -20 52 -3 0 -21 14 -39
30 -19 16 -42 32 -52 35 -10 3 -21 12 -24 20 -3 8 -12 15 -19 15 -8 0 -27 11
-43 25 -16 14 -33 25 -38 25 -5 0 -17 6 -25 14 -9 7 -50 30 -91 51 -41 20 -87
44 -103 52 -15 8 -32 11 -37 8 -6 -3 -10 -2 -10 4 0 5 -10 13 -22 17 -13 4
-23 6 -23 4 0 -2 -11 3 -25 10 -14 8 -34 15 -44 17 -11 2 -24 8 -31 13 -6 5
-22 11 -36 13 -14 3 -46 12 -70 20 -24 8 -62 17 -84 20 -22 3 -47 8 -55 11 -8
3 -32 8 -54 11 -21 3 -42 8 -48 11 -5 3 -36 5 -70 5 -34 0 -70 4 -80 10 -12 6
-24 6 -36 0 -13 -7 -23 -6 -30 1 -9 9 -12 9 -12 -1 0 -10 -3 -11 -14 -2 -10 9
-16 9 -21 1 -5 -8 -11 -8 -19 -1 -7 6 -15 9 -18 6z"/>
</g>
</svg>
